<svg xmlns="http://www.w3.org/2000/svg" viewBox="0 0 512 512">
  <!-- Hintergrund: Dunkles Hexagon (Technischer Look) -->
  <path fill="#0f172a" d="M256 0L477.7 128V384L256 512L34.3 384V128L256 0Z"/>
  
  <!-- Akzent: Innerer Ring / Rand in Electric Blue -->
  <path fill="none" stroke="#3b82f6" stroke-width="20" d="M256 30L450 142V370L256 482L62 370V142L256 30Z"/>
  
  <!-- Das "S" für SEM (Stilisiert als technische Bahn/Kolben) -->
  <path fill="#ffffff" d="M336 144h-96c-35.3 0-64 28.7-64 64v16c0 35.3 28.7 64 64 64h64c17.7 0 32 14.3 32 32v32c0 17.7-14.3 32-32 32h-112v-64h-64v64c0 35.3 28.7 64 64 64h112c35.3 0 64-28.7 64-64v-32c0-35.3-28.7-64-64-64h-64c-17.7 0-32-14.3-32-32v-16c0-17.7 14.3-32 32-32h96v64h64v-64c0-35.3-28.7-64-64-64z"/>
  
  <!-- Kleiner technischer Akzent-Punkt (Zündfunke) -->
  <circle cx="360" cy="160" r="24" fill="#3b82f6"/>
</svg>